<?xml version="1.0" encoding="UTF-8"?>
<svg xmlns="http://www.w3.org/2000/svg" viewBox="0 0 655.64 743.54">
  <g id="Face">
    <ellipse id="Head" cx="337.76" cy="259.65" rx="199.05" ry="224.17" style="fill: #fcd6c4;"/>
    <ellipse id="EarLeft" cx="143.41" cy="335.7" rx="39" ry="56.84" transform="translate(-99.41 63.12) rotate(-18.56)" style="fill: #fcd6c4;"/>
    <ellipse id="EarRight" cx="529.61" cy="336.55" rx="54.27" ry="39" transform="translate(12.61 692.16) rotate(-66.96)" style="fill: #fcd6c4;"/>
    <ellipse id="Eyes_left" cx="258.18" cy="311.42" rx="27.62" ry="28.65" style="fill: #373334;"/>
    <ellipse id="Eyes_Right" cx="425.09" cy="312.44" rx="27.62" ry="28.65" style="fill: #373334;"/>
    <ellipse id="Cheeks_Left" cx="218.15" cy="366.81" rx="31.14" ry="26.6" style="fill: #ffbeaa;"/>
    <ellipse id="Cheeks_Right" cx="466.5" cy="360.51" rx="32.18" ry="26.6" style="fill: #ffbeaa;"/>
    <path id="Nose" d="M350.83,358.41c-.56,2.12-2.12,3.81-3.25,4.94-3.71,3.71-6.54,4.65-6.92,4.66-.66,0-3.41-1.17-6.49-4.09-.73-.69-3.67-2.68-4.24-5.51-.84-4.22,5.84-7.34,10.45-7.34,4.45,0,11.62,2.95,10.45,7.34Z" style="fill: #ffbeaa;"/>
    <path id="Lips" d="M299.44,386.08c8.33,11.29,18.95,13.54,23.2,14.64,5.38,1.38,10.57,1.42,16.61,1.46,6.44.04,11.56.08,17.85-1.46,10.33-2.51,20.77-8.49,22.24-15.06.16-.7.69-3.06-.42-3.95-.73-.58-1.99-.41-4.88.91-4.81,2.19-6.67,4.36-10.35,6.24-3.26,1.67-5.91,2.61-7.18,3-4,1.2-7.02,1.35-11.75,1.57-5.96.28-5.13-.36-13.84-.42,0,0-5.45-.04-9.6-1.55-.3-.11-.59-.24-.59-.24-.64-.29-1.11-.65-5.69-2.85-3.88-1.87-6.03-2.47-7.13-3.27-3.11-2.26-5.63-3.39-6.35-3.39-3.95,3.39-1.22,4-2.12,4.38Z" style="fill: #dc6f5a;"/>
    <path id="Brow_right" d="M403.21,255.11c.57,6.32,15.07.95,32.63,1.26,18.66.33,36.08,12.69,37.7,6.01,1.29-5.34-16.19-16.06-34.46-18.54-19.5-2.65-36.32,6.35-35.87,11.27Z" style="fill: #835044; stroke: #53322d; stroke-miterlimit: 10; stroke-width: .5px;"/>
    <path id="Brow_left" d="M275.19,253.89c-.38,6.33-15.56,1.45-33.72,2.35-19.3.95-36.89,13.89-38.8,7.27-1.52-5.29,16.2-16.59,35.02-19.68,20.08-3.3,37.8,5.13,37.5,10.07Z" style="fill: #835044; stroke: #53322d; stroke-miterlimit: 10; stroke-width: .51px;"/>
  </g>
  <g id="Body">
    <path d="M289.84,474.89c12.99,3.67,21.96,6.33,50.26,6.35,28.73.02,33.58,0,48.28-5.65,3.67-1.41.87,11.82,3.11,19.48,3.51,12.01,13.72,16,21.18,18.35,15.25,4.8,23.21,6.32,27.11,7.06,29.27,5.55,53.98,19.58,65.51,27.95,17.03,12.36,25.06,26.71,35.86,46.02,19.35,34.59,17.02,54.12,29.08,124.24.09.54.31,1.81,0,3.39-2.5,12.68-52.94,19.1-66.92,18.92-107.58-1.41-157.55,0-157.55,0-62.63,0-124.38,2.71-186.92-.56-14.2-.74-37.61-1.94-48.56-17.79-12.41-17.94-1.69-44.36,15.25-86.12,18.02-44.43,29.51-72.75,58.45-91.48,13.45-8.71,27.28-17.66,46.87-21.74,11.78-2.46,23.11-6.76,34.73-9.88,4.92-1.32,11.51-2.39,16.52-8.33,4.25-5.04,5.41-8.4,5.51-10.73.03-.72.08-2.46,0-5.92-.19-9.13-.48-12.85,1.15-13.54.45-.19.89-.08,1.1-.02Z" style="fill: #fff;"/>
    <path d="M288.99,490.41c-3.14-.96-.87,4.15-4.24,10.16-4.77,8.53-10.47,10.44-17.79,11.86-6.31,1.22,7.34,13.84,9.04,16.38,2.67,4.01,13.15,11.94,32.47,17.22,18.69,5.11,33.22,4.3,38.96,3.95,10.41-.63,26.82-1.41,44.61-13.55,11.11-7.58,19.91-17.8,22.78-20.89,3.48-3.76-9.38-2.91-15.06-8.85-5.78-6.05-6.87-7.53-8.56-15.15-.78-3.51-6.41,3.59-15.25,8.47-7.25,4-13.46,5.24-21.18,6.78-6.02,1.2-15.95,2.7-25.69,1.27-23.55-3.45-33.6-15.67-40.09-17.65Z" style="fill: #ffcebb;"/>
    <path d="M289.91,474.25c5.47,1.5,7.37,2.03,9.39,2.68.93.3,1.02.36,2.82.64.98.15,1,.3,2.19.49,3.88.64,6.64,1.23,12.99,1.84,1.45.14,2.64.25,4.3.35,3.06.19,5.28.2,8.48.35.61.03,3.1.17,6.35.14,0,0,6.78.14,16.02-.14,5.43-.17,13.13.78,23.93-1.69,11.45-2.62,9.95-3.67,13.06-3.88.44-.03.61,5.91.64,7.06.16,7.26,0,3.11.18,8.4.13,3.86,2.16-1.57-6.56,4.67-2.66,1.9-4.57,3.36-8.73,5.43-7.72,3.85-9.34,5.97-22.32,7.29-9.75.99-14.64,1.16-18.69.86-1.06-.08-4.84-.38-9.82-1.38-11.18-2.24-18.88-6.05-24.89-9.08-5.74-2.9-7.74-5.29-10.08-6.74-1.67-1.03-1.03-1.53-1.17-8.44-.03-1.23-1.28-9.7,1.91-8.82Z" style="fill: #f9a289;"/>
  </g>
  <g id="Shirt">
    <path d="M412.94,516.67c-8.41,11.93-5.36,9.88-23.49,20.97-12.93,7.91-26.24,11.55-43.71,12.63-17.86,1.1-32.47.28-54.21-10.45-14.53-7.17-15.47-9.52-25.98-24.85-1.08-1.58-4.52-1.69-14.12,1.69-4.06,1.43-12.96,1.8-8.75,9.04,6.32,10.88,17.04,20.92,24.56,25.69,19.49,12.37,38.73,16.4,51.39,18.07,31.01,4.1,53.3-2.74,59.41-4.45,6.37-1.78,29.25-7.06,47.6-26.32,8.16-8.57,7.14-5.01,13.55-16.09,3.11-5.36-10.33-5.49-11.29-5.65-5.91-.98-10.64-6.41-14.96-.28Z" style="fill: #83beff;"/>
    <polygon points="564.47 675.63 109.32 676.39 127.02 632.34 556.19 632.72 564.47 675.63" style="fill: #83beff;"/>
    <path d="M551.67,615.77l-419.39,2.26c4.7-9.32,8.1-20.04,12.8-29.36,3.08-6.11,7.46-10.83,10.54-16.94,138.36-.51,235.48,1.64,373.83,1.13,3.12,6.03,8.17,12.04,11.29,18.07,4.28,8.28,6.63,16.57,10.92,24.85Z" style="fill: #83beff;"/>
    <path d="M564.29,729.28c-4.98,2.88-12.44,6.58-22.02,9.04-9.44,2.42-16.53,2.51-27.11,2.82-12.62.38-25.21,1.54-37.84,1.69,0,0-216.6,2.63-303.81-2.26-7.38-.41-18.94-1.26-33.34-3.68-8.03-1.35-14.68-2.81-19.4-3.94-5.8-4.81-4.5-2.62-9-9.83-.77-1.24-5.07-8.06-5.08-8.3-.24-5.19-4.14-16.14-.19-16.83,154.22.11,306.02-.63,460.23-.52.5,1.75.82,3.18,1.05,4.47.65,3.66.86,5.39,1.59,11.48.94,7.9,1.19,8.64.56,10.22-1.18,2.97-3.79,4.7-5.65,5.65Z" style="fill: #83beff;"/>
  </g>
  <g id="Hair">
    <path id="BangsA" d="M353.91,185.6c-2.09,8.48-7.44,24.78-22.03,37.59-24.63,21.63-63.04,22.33-66.37,14.61-.68-1.57.61-2.3,5.96-12.67,3.73-7.23,7.65-14.84,10.73-24.28,1.5-4.61.86-3.7,4.52-16.38,1.96-6.8,2.6-8.32,3.05-11.36.82-5.49.5-10.32.33-16.88-.17-6.59-3.27-43.1,11.13-68.53.13-.23.31-.54.53-.93,7.73-13.24,23.51-28.26,39.72-29.37,21.23-1.45,37.24,21.42,41.53,27.54,19.7,28.13,14.8,61.3,10.16,92.61-2.71,18.34-6.88,29.61-13.55,39.53,0,0-13.85,20.59-34.19,24.41-.14.03-.4.03-.66-.07-2.98-1.24,10.46-22.92,15.91-43.97,2.41-9.33,4.55-23.49,1.69-42.35" style="fill: #864f3f;"/>
    <g id="Hair_Right">
      <path id="Hair_Right-2" data-name="Hair_Right" d="M388.49,470.93c-.23,6.08-.47,12.15-.7,18.23,1.11,4.55,3.78,12.21,10.73,17.43,4.04,3.04,7.97,4.08,11.86,5.06,15.97,4.03,23.95,6.05,30.49,6.75,21.13,2.27,48.16,15.01,66.64,30.37,18.89,15.7,28.52,33.86,32.19,41.62,17.1,36.13,10.9,47.66,26.81,73.49,7.61,12.36,29.54,3.15,37.98,5.25,10.68,2.66,22.57-6.38,22.18-11.26-.43-5.29-10.59-5.33-18.07-13.5-9.23-10.08-7.65-25.18-7.34-28.12,1.58-15.13,10.75-17.72,18.07-33.18,12.83-27.09,1.31-54.22,5.65-55.11,3.08-.64,8.84,13.04,11.29,23.62,1.96,8.48,3.81,16.44.56,25.87-3.68,10.7-12.96,20.55-18.5,21.75-.48.1-2.21.42-2.4,1.31-.28,1.33,3.03,3.38,5.08,3.94,7.25,1.96,16.44-10.05,18.64-12.93,12.8-16.76,13-35.69,12.99-37.68-.06-17.87-8-30.61-10.73-34.87-8.94-13.95-15-12.05-27.67-27.56-5.55-6.79-16.7-20.44-18.64-37.68-1.87-16.62,6.38-22.76,11.86-41.62,11.99-41.26-8.5-77.26-3.95-78.73,3.18-1.03,12.75,16.69,17.51,33.18,6.1,21.15,4.21,39.99,1.13,50.05-1.66,5.43-6.58,17.76-9.66,20.61-.12.12-.61.55-.51.76.41.81,9.56-2.22,14.12-5.06,10.68-6.66,12.1-22.25,12.99-33.74,1.87-24.03-4.72-42.86-6.78-48.36-8.38-22.44-16.22-23.77-28.24-50.05-7.06-15.45-10.19-27.77-12.99-38.8-8.33-32.81-4.66-43.54-11.29-71.98-4.68-20.08-10.97-33.89-18.07-49.49-10.69-23.49-24.08-52.88-51.39-80.98-15.5-15.95-43.98-45.25-90.92-55.11-30.33-6.37-36.46-6.56-80.75,4.5-4.13,1.03-4.8,13.53-1.69,15.75,1.3.93,3.21.22,5.65-.56,5.7-1.82,10.98.56,16.68-1.24,12.55-3.95,36.73-3.08,39.22-2.7,38.98,5.95,78.61,53.09,76.8,55.11-.8.89-8.63-8.22-28.8-19.68-37.85-21.52-73.9-28.59-74.8-25.95-.29.85.42,3.2,11.55,10.21,9.03,5.69,17.91,11.34,25.98,19.68,8.91,9.21,15.42,20.23,14.12,21.37-1.3,1.13-9.23-8.35-24.85-19.12-17.64-12.17-36.51-20.06-37.84-18-.72,1.11,1.3,5.74,6.52,12.96,7.48,10.35,10.82,17.49,13.81,28.65,2.97,11.06,6.17,15.25,15.25,32.62,21.59,41.33,19.38,48.12,32.19,69.17h0c16.74,23.93,20.96,32.34,39.95,49.15,10.25,9.07,20.04,15.76,43.06,30.15-.65-.41,0-1.62,0-1.62,0,0,.03,18.87,0,25.8-.09,24.61-.14,36.92-.46,38.7-.4,2.21-.95,4.75-.1,5.17,2.01,1,12.5-9.81,16.38-23.62,4.06-14.47-1.58-23.54,3.95-27.56,4.91-3.57,13.49.58,16.94,2.25,13.6,6.58,18.18,20.64,19.2,24.18,2.53,8.77,1.44,16.01.56,21.37-3.77,23.23-19.54,37.23-22.02,39.37-8.2,7.06-18.26,15.74-30.49,14.62-6.05-.55-12.51-3.49-16.38,0-2.13,1.93-1.9,4.39-2.82,7.87-1.92,7.24-6.75,10.94-12.99,16.87-14.08,13.39-10.91,14.92-22.59,25.31-8.89,7.91-16.68,12.32-24.85,16.87-10.62,5.93-26.46,13.45-47.3,18.89Z" style="fill: #7c4a3c;"/>
      <path id="HL_RIght" d="M514.35,264.63c-3.58,1.53.91,14.91,1.65,33.05.96,23.45-5.05,37.16-2.48,38,2.72.9,12.6-13.43,16.52-30.57,2.9-12.69.71-18.79,4.96-21.48,6.83-4.32,23.33,4.56,31.39,17.35,12.37,19.62,2.15,44.08-.83,50.4-7.23,15.33-24.31,34.09-42.96,34.7-8.06.27-16.87-1.52-21.48.83-5.5,2.79-6.06,9.85-6.61,12.39-3.79,17.66-19.65,27.4-42.13,46.27-8.4,7.05-28.72,15.91-44.61,23.96-7.99,9.09-23.96-5.78-14.87,29.74,6.61,9.09,14.22,9.51,25.61,14.87,27.32,12.86,40.85,10.41,57.83,16.52,44.51,16.03,64.44,61.96,69.4,60.31,6.32-2.11,5.04-20.14-.83-38-3.71-11.28-10.46-19.91-23.96-37.18-12.75-16.31-15.18-16.37-21.48-27.26-12.07-20.86-10.55-33.4-9.91-37.18.96-5.68,3.12-10.4,3.91-12.09,3.9-8.36,10.21-16,11.79-15.18,1.53.8-3.65,8.39-4.13,20.65-.47,11.99,3.84,21.29,6.61,27.26,5.67,12.24,14.24,22.32,15.7,21.48,1.69-.98-10.37-14.43-9.91-33.05.44-17.85,12.17-31.85,21.48-42.96,13.15-15.7,17.12-12.82,28.09-28.09,4.16-5.79,12.76-18,16.52-35.53,3.09-14.4,1.07-23.79,2.48-23.96,2.14-.25,11.2,20.78,7.44,43.79-3.02,18.43-11.24,19.71-18.18,43.79-3.58,12.45-7.52,26.11-3.3,40.48,3.69,12.6,10.5,14.99,29.74,34.7,21.99,22.53,37.26,38.55,41.31,61.14,3.42,19.08-3.19,31.57-4.96,33.87-.87,1.13-3.7,4.51-5.48,6.09-.74.66-2.91,2.5-2.91,2.5s-1.37,2.13-2.45,2.87c-2.41,1.63-7.07,6.16-7.06,7.62,0,.16,14.6,4.05,31.95-21.56,7.85-11.59,7.29-20.76,7.44-26.44.4-15.18-5.51-26.43-9.09-33.05-8.6-15.91-14.7-15.22-29.74-34.7-10.98-14.22-18.85-24.41-19.83-38-1.06-14.82,7.14-18.77,14.04-38,10.22-28.45,6.79-60.22-3.3-82.62-7.38-16.36-12.44-14.69-27.26-37.18-16.05-24.34-20.82-42.53-28.92-64.44-23.46-63.51-55.95-107.13-57.01-106.58-.69.36,19.47,30.28,29.74,76.01,7.94,35.35,7.56,69.38.83,71.05-3.62.9-7.77-7.88-10.74-6.61Z" style="fill: #623d37;"/>
      <path d="M439.17,151.44c1.59-.69,9.95,20.58,31.39,55.35,21.09,34.21,36.01,50.95,34.7,52.05-1.51,1.26-24.07-18.61-42.13-47.92-18.17-29.47-25.77-58.7-23.96-59.48Z" style="fill: #623d37;"/>
    </g>
    <path d="M304.28,89.37c-3.36-3.95,12.85-33.5,14.73-40.1,1.57-5.5-17.93,4.94-32.47,15.72-21.86,16.21-36.47,37.04-37.82,35.99-2.11-1.64,6.99-28.3,23.62-45.12,2.5-2.52,7.51-7.48,15.2-11.83,13.24-7.5,24.45-7.52,24.35-9.31-.09-1.58-9.05-2.26-18.2-.5-13.21,2.55-23.24,5.34-28.98,8.15-15.82,7.77-29.21,13-45.81,27.59-31.79,27.95-45.41,60.84-48.54,59.05-2.54-1.45,6.86-22.36,19.01-43.32,20.05-34.61,63.57-63.41,105.26-67.24,29-2.67,27.82,5.16,50.35,4.61,17.16-.42,12.77-5.35,28.99-5.87,28.11-.91,46.57,7.57,54.4,11.65,33.27,17.3,56.76,53,55.06,55.03-1.66,1.97-29.27-25.78-69.04-41.51-19.74-7.81-37.41-14.17-38.4-11.16-.77,2.35,10.63,6.8,25.65,19.97,18.08,15.86,26.83,36.55,26.09,37.31-1.12,1.17-26.93-27.99-39.09-32.6-.5-.19-7.59-3.43-11.01-5.5-9.87-5.98-9.4-2.92-10.3-1.73-1.65,2.18,5.01,8.6,11.87,23.67,2.77,6.08,7.71,19.8,5.82,21.2-2.91,2.15-17.31-31.66-37-32.71-23.99-1.27-40.4,32.53-43.77,28.57Z" style="fill: #5d3d37;"/>
    <g id="Hair_Left">
      <path id="Hair_Right-3" data-name="Hair_Right" d="M291.58,472.13c.24,6.07.48,12.14.73,18.22-1.16,4.54-3.93,12.2-11.15,17.42-4.19,3.03-8.28,4.08-12.32,5.06-16.59,4.03-24.88,6.04-31.68,6.74-21.95,2.27-50.03,15-69.22,30.35-19.62,15.69-29.62,33.84-33.44,41.59-17.76,36.11-11.32,47.64-27.85,73.45-7.91,12.35-30.68,3.15-39.45,5.25-11.1,2.66-23.45-6.37-23.04-11.26.45-5.29,11-5.32,18.77-13.49,9.59-10.07,7.95-25.16,7.63-28.1-1.65-15.12-11.17-17.71-18.77-33.16-13.32-27.07-1.36-54.19-5.87-55.08-3.2-.64-9.19,13.03-11.73,23.61-2.04,8.47-3.96,16.43-.59,25.85,3.82,10.69,13.46,20.54,19.21,21.74.5.1,2.3.42,2.49,1.3.29,1.32-3.15,3.38-5.28,3.93-7.54,1.96-17.07-10.05-19.36-12.93-13.3-16.75-13.5-35.67-13.49-37.66.07-17.86,8.31-30.59,11.15-34.85,9.29-13.94,15.58-12.04,28.74-27.54,5.76-6.79,17.35-20.43,19.36-37.66,1.94-16.61-6.63-22.75-12.32-41.59-12.45-41.24,8.83-77.22,4.11-78.69-3.3-1.03-13.24,16.68-18.19,33.16-6.34,21.13-4.38,39.97-1.17,50.02,1.73,5.42,6.83,17.75,10.03,20.6.13.12.63.55.53.76-.42.81-9.93-2.22-14.67-5.06-11.09-6.65-12.56-22.24-13.49-33.72-1.94-24.01,4.91-42.84,7.04-48.34,8.7-22.43,16.85-23.75,29.33-50.02,7.34-15.44,10.58-27.75,13.49-38.78,8.65-32.8,4.85-43.51,11.73-71.94,4.86-20.07,11.4-33.87,18.77-49.46,11.11-23.47,25.01-52.85,53.38-80.94,16.11-15.94,45.68-45.23,94.45-55.08,31.51-6.37,37.87-6.55,83.89,4.5,4.29,1.03,4.98,13.52,1.76,15.74-1.35.93-3.34.22-5.87-.56-5.92-1.82-12.26-2.14-18.19-3.93-13.03-3.94-37.3-.38-39.89,0-40.5,5.94-81.66,53.06-79.78,55.08.83.89,8.97-8.21,29.92-19.67,39.32-21.51,80.02-27.37,80.95-24.73.3.85,3.56,1.3-10.56,8.64-9.73,5.06-23.3,11.69-31.68,20.03-9.26,9.21-16.02,20.22-14.67,21.36,1.35,1.13,9.59-8.35,25.81-19.11,18.33-12.16,37.92-20.05,39.3-17.99.74,1.11-.13,2.49-6.91,17.73-5.26,11.83-2.26,11.29-10.73,23.72-6.47,9.48-9.89,15.38-19.32,32.74-22.43,41.3-20.13,48.09-33.44,69.13h0c-17.39,23.92-21.78,32.32-41.5,49.12-10.64,9.07-20.82,15.75-44.73,30.13.68-.41,0-1.62,0-1.62,0,0-.03,18.86,0,25.79.09,24.6.14,36.9.48,38.68.42,2.2.99,4.75.11,5.16-2.09,1-12.99-9.8-17.01-23.61-4.22-14.46,1.64-23.52-4.11-27.54-5.1-3.56-14.01.58-17.6,2.25-14.13,6.57-18.88,20.63-19.94,24.17-2.63,8.77-1.49,16-.59,21.36,3.92,23.22,20.3,37.21,22.88,39.34,8.51,7.06,18.97,15.73,31.68,14.61,6.29-.55,13-3.49,17.01,0,2.22,1.93,1.97,4.39,2.93,7.87,2,7.24,7.02,10.94,13.49,16.86,14.63,13.38,11.34,14.91,23.46,25.29,9.24,7.91,17.33,12.31,25.81,16.86,11.04,5.92,27.49,13.44,49.14,18.88Z" style="fill: #7c4a3c;"/>
      <path d="M230.83,520.62c-2.58,11.2-7.26,19.35-9.32,22.87-4.41,7.55-6.98,9.28-11.86,16.09-6.19,8.64-13.5,18.84-15.25,32.19-1.77,13.53,2.21,29.92,12.71,39.81,7.56,7.12,15.8,9.61,15.8,9.61,5.59,1.69,11.21,3.85,11.31,4.79.18,1.68-15.57,1.92-27.95,1.69-20.86-.38-33.73-12.79-37.27-15.25-30.49-21.18-14.4-106.73-23.72-51.67-.19,1.11.59,29.55,10.16,53.36.76,1.89,2.37,5.72,2.54,11.01.32,9.72-4.34,19.74-11.86,26.26-9.98,8.65-24.53,10.75-26.26,7.62-1.68-3.03,10.26-8.21,12.71-20.33,1.66-8.22,3.12-9.99-2.54-20.33-22.8-41.65-28.01-27.47-28.8-31.34-3.17-15.55,4.66-47.64,20.33-77.93,11.51-22.25,13.44-19.97,17.79-30.49,19.08-46.18-15.83-95.68-5.93-101.65,5.52-3.33,25.77,6.55,33.04,24.56,21.18,52.52,38.96,83.86,33.04,111.81-1.08,5.08,11.12-13.01,13.55-20.33,10.54-31.7-1.31-61.06,2.54-62.68,2.72-1.15,7.54,12.92,12.71,27.95,7.12,20.72,3.5,38.17,2.54,42.35Z" style="fill: #7c4a3c;"/>
      <path id="HL_RIght-2" data-name="HL_RIght" d="M149.96,265.71c3.8,1.53-.96,14.91-1.75,33.05-1.02,23.45,5.36,37.16,2.63,38-2.89.9-13.37-13.43-17.54-30.57-3.08-12.69-.75-18.79-5.26-21.48-7.25-4.32-24.76,4.56-33.32,17.35-13.13,19.62-2.28,44.08.88,50.4,7.67,15.33,25.8,34.09,45.6,34.7,8.56.27,17.9-1.52,22.8.83,5.83,2.79,6.44,9.85,7.01,12.39,4.03,17.66,20.85,27.4,44.72,46.27,8.92,7.05,30.48,15.91,47.35,23.96,8.48,9.09,25.43-5.78,15.78,29.74-7.01,9.09-15.1,9.51-27.18,14.87-28.99,12.86-43.35,10.41-61.38,16.52-47.24,16.03-68.4,61.96-73.66,60.31-6.71-2.11-5.35-20.14.88-38,3.93-11.28,11.1-19.91,25.43-37.18,13.53-16.31,16.11-16.37,22.8-27.26,12.81-20.86,11.2-33.4,10.52-37.18-1.02-5.68-3.32-10.4-4.15-12.09-4.14-8.36-10.84-16-12.51-15.18-1.62.8,3.88,8.39,4.38,20.65.5,11.99-4.08,21.29-7.01,27.26-6.02,12.24-15.12,22.32-16.66,21.48-1.8-.98,11.01-14.43,10.52-33.05-.47-17.85-12.92-31.85-22.8-42.96-13.96-15.7-18.17-12.82-29.81-28.09-4.42-5.79-13.55-18-17.54-35.53-3.28-14.4-1.13-23.79-2.63-23.96-2.27-.25-11.89,20.78-7.89,43.79,3.2,18.43,11.94,19.71,19.29,43.79,3.8,12.45,7.98,26.11,3.51,40.48-3.92,12.6-11.15,14.99-31.57,34.7-23.34,22.53-39.55,38.55-43.84,61.14-3.63,19.08,3.39,31.57,5.26,33.87.92,1.13,3.93,4.51,5.82,6.09.79.66,3.09,2.5,3.09,2.5,0,0,1.45,2.13,2.6,2.87,2.56,1.63,7.5,6.16,7.49,7.62,0,.16-15.49,4.05-33.91-21.56C-.42,574.67.18,565.51.02,559.83c-.42-15.18,5.85-26.43,9.65-33.05,9.13-15.91,15.6-15.22,31.57-34.7,11.66-14.22,20.01-24.41,21.04-38,1.13-14.82-7.58-18.77-14.91-38-10.84-28.45-7.21-60.22,3.51-82.62,7.83-16.36,13.2-14.69,28.94-37.18,17.04-24.34,22.1-42.53,30.69-64.44,24.9-63.51,59.38-107.13,60.5-106.58.73.36-20.66,30.28-31.57,76.01-8.43,35.35-8.02,69.38-.88,71.05,3.84.9,8.24-7.88,11.4-6.61Z" style="fill: #623d37;"/>
      <path d="M229.76,152.53c-1.68-.69-10.56,20.58-33.32,55.35-22.39,34.21-38.22,50.95-36.83,52.05,1.61,1.26,25.54-18.61,44.72-47.92,19.28-29.47,27.35-58.7,25.43-59.48Z" style="fill: #623d37;"/>
    </g>
  </g>
</svg>